<?xml version="1.0" encoding="utf-8" standalone="no"?>
<!DOCTYPE svg PUBLIC "-//W3C//DTD SVG 1.1//EN"
  "http://www.w3.org/Graphics/SVG/1.1/DTD/svg11.dtd">
<!-- Created with matplotlib (http://matplotlib.org/) -->
<svg height="225pt" version="1.1" viewBox="0 0 504 225" width="504pt" xmlns="http://www.w3.org/2000/svg" xmlns:xlink="http://www.w3.org/1999/xlink">
 <defs>
  <style type="text/css">
*{stroke-linecap:butt;stroke-linejoin:round;stroke-miterlimit:100000;}
  </style>
 </defs>
 <g id="figure_1">
  <g id="patch_1">
   <path d="M 0 225 
L 504 225 
L 504 0 
L 0 0 
z
" style="fill:#ffffff;"/>
  </g>
  <g id="axes_1">
   <g id="patch_2">
    <path d="M 63 158.705357 
L 495 158.705357 
L 495 22.5 
L 63 22.5 
z
" style="fill:#ffffff;"/>
   </g>
   <g id="line2d_1">
    <path clip-path="url(#p63cf8830ae)" d="M 63 67.931101 
L 125.633153 81.472904 
L 188.266305 86.235058 
L 250.899458 88.965707 
L 313.532611 89.557625 
L 376.165764 86.230025 
L 438.798916 71.385691 
L 491.862345 -1 
" style="fill:none;stroke:#bf00bf;stroke-linecap:square;stroke-width:3.0;"/>
    <defs>
     <path d="M 0 6 
C 1.591219 6 3.117479 5.367802 4.242641 4.242641 
C 5.367802 3.117479 6 1.591219 6 0 
C 6 -1.591219 5.367802 -3.117479 4.242641 -4.242641 
C 3.117479 -5.367802 1.591219 -6 0 -6 
C -1.591219 -6 -3.117479 -5.367802 -4.242641 -4.242641 
C -5.367802 -3.117479 -6 -1.591219 -6 0 
C -6 1.591219 -5.367802 3.117479 -4.242641 4.242641 
C -3.117479 5.367802 -1.591219 6 0 6 
z
" id="mcbfc90f744" style="stroke:#000000;stroke-width:0.5;"/>
    </defs>
    <g clip-path="url(#p63cf8830ae)">
     <use style="fill:#bf00bf;stroke:#000000;stroke-width:0.5;" x="63.0" xlink:href="#mcbfc90f744" y="67.9311008919"/>
     <use style="fill:#bf00bf;stroke:#000000;stroke-width:0.5;" x="125.633152705" xlink:href="#mcbfc90f744" y="81.4729035858"/>
     <use style="fill:#bf00bf;stroke:#000000;stroke-width:0.5;" x="188.266305411" xlink:href="#mcbfc90f744" y="86.2350577919"/>
     <use style="fill:#bf00bf;stroke:#000000;stroke-width:0.5;" x="250.899458116" xlink:href="#mcbfc90f744" y="88.965707094"/>
     <use style="fill:#bf00bf;stroke:#000000;stroke-width:0.5;" x="313.532610821" xlink:href="#mcbfc90f744" y="89.5576251179"/>
     <use style="fill:#bf00bf;stroke:#000000;stroke-width:0.5;" x="376.165763527" xlink:href="#mcbfc90f744" y="86.2300251017"/>
     <use style="fill:#bf00bf;stroke:#000000;stroke-width:0.5;" x="438.798916232" xlink:href="#mcbfc90f744" y="71.3856906479"/>
     <use style="fill:#bf00bf;stroke:#000000;stroke-width:0.5;" x="491.862344864" xlink:href="#mcbfc90f744" y="-1.0"/>
    </g>
   </g>
   <g id="line2d_2">
    <path clip-path="url(#p63cf8830ae)" d="M 63 67.931101 
L 125.633153 87.997295 
L 188.266305 103.129364 
L 250.899458 115.867488 
L 313.532611 126.041215 
L 376.165764 134.024847 
L 438.798916 140.36609 
L 501.432069 145.5923 
" style="fill:none;stroke:#0000ff;stroke-linecap:square;stroke-width:3.0;"/>
    <defs>
     <path d="M -6 6 
L 6 6 
L 6 -6 
L -6 -6 
z
" id="md5a01c8bdf" style="stroke:#000000;stroke-linejoin:miter;stroke-width:0.5;"/>
    </defs>
    <g clip-path="url(#p63cf8830ae)">
     <use style="fill:#0000ff;stroke:#000000;stroke-linejoin:miter;stroke-width:0.5;" x="63.0" xlink:href="#md5a01c8bdf" y="67.9311009028"/>
     <use style="fill:#0000ff;stroke:#000000;stroke-linejoin:miter;stroke-width:0.5;" x="125.633152705" xlink:href="#md5a01c8bdf" y="87.997295217"/>
     <use style="fill:#0000ff;stroke:#000000;stroke-linejoin:miter;stroke-width:0.5;" x="188.266305411" xlink:href="#md5a01c8bdf" y="103.129363845"/>
     <use style="fill:#0000ff;stroke:#000000;stroke-linejoin:miter;stroke-width:0.5;" x="250.899458116" xlink:href="#md5a01c8bdf" y="115.867488161"/>
     <use style="fill:#0000ff;stroke:#000000;stroke-linejoin:miter;stroke-width:0.5;" x="313.532610821" xlink:href="#md5a01c8bdf" y="126.04121461"/>
     <use style="fill:#0000ff;stroke:#000000;stroke-linejoin:miter;stroke-width:0.5;" x="376.165763527" xlink:href="#md5a01c8bdf" y="134.024847198"/>
     <use style="fill:#0000ff;stroke:#000000;stroke-linejoin:miter;stroke-width:0.5;" x="438.798916232" xlink:href="#md5a01c8bdf" y="140.366090004"/>
     <use style="fill:#0000ff;stroke:#000000;stroke-linejoin:miter;stroke-width:0.5;" x="501.432068937" xlink:href="#md5a01c8bdf" y="145.592300022"/>
    </g>
   </g>
   <g id="line2d_3">
    <path clip-path="url(#p63cf8830ae)" d="M 64.851429 158.705357 
L 64.851429 22.5 
" style="fill:none;stroke:#ff0000;stroke-dasharray:6.000000,6.000000;stroke-dashoffset:0.0;stroke-width:3.0;"/>
   </g>
   <g id="line2d_4">
    <path clip-path="url(#p63cf8830ae)" d="M 376.508571 158.705357 
L 376.508571 22.5 
" style="fill:none;stroke:#ff0000;stroke-dasharray:1.000000,3.000000;stroke-dashoffset:0.0;stroke-width:10.0;"/>
   </g>
   <g id="patch_3">
    <path d="M 63 22.5 
L 495 22.5 
" style="fill:none;stroke:#000000;stroke-linecap:square;stroke-linejoin:miter;"/>
   </g>
   <g id="patch_4">
    <path d="M 495 158.705357 
L 495 22.5 
" style="fill:none;stroke:#000000;stroke-linecap:square;stroke-linejoin:miter;"/>
   </g>
   <g id="patch_5">
    <path d="M 63 158.705357 
L 495 158.705357 
" style="fill:none;stroke:#000000;stroke-linecap:square;stroke-linejoin:miter;"/>
   </g>
   <g id="patch_6">
    <path d="M 63 158.705357 
L 63 22.5 
" style="fill:none;stroke:#000000;stroke-linecap:square;stroke-linejoin:miter;"/>
   </g>
   <g id="matplotlib.axis_1">
    <g id="xtick_1">
     <g id="line2d_5">
      <defs>
       <path d="M 0 0 
L 0 -4 
" id="m0761712d6b" style="stroke:#000000;stroke-width:0.5;"/>
      </defs>
      <g>
       <use style="stroke:#000000;stroke-width:0.5;" x="63.0" xlink:href="#m0761712d6b" y="158.705357143"/>
      </g>
     </g>
     <g id="line2d_6">
      <defs>
       <path d="M 0 0 
L 0 4 
" id="mfe90970f38" style="stroke:#000000;stroke-width:0.5;"/>
      </defs>
      <g>
       <use style="stroke:#000000;stroke-width:0.5;" x="63.0" xlink:href="#mfe90970f38" y="22.5"/>
      </g>
     </g>
     <g id="text_1">
      <!-- $0$ -->
      <defs>
       <path d="M 42 31.640625 
C 42 37.75 41.90625 48.125 37.703125 56.109375 
C 34 63.109375 28.09375 65.59375 22.90625 65.59375 
C 18.09375 65.59375 12 63.40625 8.203125 56.203125 
C 4.203125 48.71875 3.796875 39.4375 3.796875 31.640625 
C 3.796875 25.953125 3.90625 17.28125 7 9.671875 
C 11.296875 -0.609375 19 -2 22.90625 -2 
C 27.5 -2 34.5 -0.109375 38.59375 9.375 
C 41.59375 16.28125 42 24.359375 42 31.640625 
M 22.90625 -0.40625 
C 16.5 -0.40625 12.703125 5.078125 11.296875 12.6875 
C 10.203125 18.5625 10.203125 27.15625 10.203125 32.75 
C 10.203125 40.4375 10.203125 46.828125 11.5 52.921875 
C 13.40625 61.390625 19 64 22.90625 64 
C 27 64 32.296875 61.296875 34.203125 53.125 
C 35.5 47.4375 35.59375 40.734375 35.59375 32.75 
C 35.59375 26.25 35.59375 18.265625 34.40625 12.375 
C 32.296875 1.484375 26.40625 -0.40625 22.90625 -0.40625 
" id="CMR17-48"/>
      </defs>
      <g transform="translate(56.1464284324 184.881975707)scale(0.3 -0.3)">
       <use transform="scale(0.996264009963)" xlink:href="#CMR17-48"/>
      </g>
     </g>
    </g>
    <g id="xtick_2">
     <g id="line2d_7">
      <g>
       <use style="stroke:#000000;stroke-width:0.5;" x="186.428571429" xlink:href="#m0761712d6b" y="158.705357143"/>
      </g>
     </g>
     <g id="line2d_8">
      <g>
       <use style="stroke:#000000;stroke-width:0.5;" x="186.428571429" xlink:href="#mfe90970f38" y="22.5"/>
      </g>
     </g>
     <g id="text_2">
      <!-- $2$ -->
      <defs>
       <path d="M 41.703125 15.453125 
L 39.90625 15.453125 
C 38.90625 8.375 38.09375 7.171875 37.703125 6.5625 
C 37.203125 5.765625 30 5.765625 28.59375 5.765625 
L 9.40625 5.765625 
C 13 9.671875 20 16.75 28.5 24.953125 
C 34.59375 30.734375 41.703125 37.53125 41.703125 47.421875 
C 41.703125 59.21875 32.296875 66 21.796875 66 
C 10.796875 66 4.09375 56.3125 4.09375 47.34375 
C 4.09375 43.4375 7 42.9375 8.203125 42.9375 
C 9.203125 42.9375 12.203125 43.546875 12.203125 47.03125 
C 12.203125 50.109375 9.59375 51 8.203125 51 
C 7.59375 51 7 50.90625 6.59375 50.703125 
C 8.5 59.21875 14.296875 63.40625 20.40625 63.40625 
C 29.09375 63.40625 34.796875 56.515625 34.796875 47.421875 
C 34.796875 38.734375 29.703125 31.25 24 24.75 
L 4.09375 2.28125 
L 4.09375 0 
L 39.296875 0 
z
" id="CMR17-50"/>
      </defs>
      <g transform="translate(179.574999861 184.881975707)scale(0.3 -0.3)">
       <use transform="scale(0.996264009963)" xlink:href="#CMR17-50"/>
      </g>
     </g>
    </g>
    <g id="xtick_3">
     <g id="line2d_9">
      <g>
       <use style="stroke:#000000;stroke-width:0.5;" x="309.857142857" xlink:href="#m0761712d6b" y="158.705357143"/>
      </g>
     </g>
     <g id="line2d_10">
      <g>
       <use style="stroke:#000000;stroke-width:0.5;" x="309.857142857" xlink:href="#mfe90970f38" y="22.5"/>
      </g>
     </g>
     <g id="text_3">
      <!-- $4$ -->
      <defs>
       <path d="M 33.59375 64.40625 
C 33.59375 66.5 33.5 66.5 31.703125 66.5 
L 2 19.59375 
L 2 17 
L 27.796875 17 
L 27.796875 7.140625 
C 27.796875 3.5 27.59375 2.5 20.59375 2.5 
L 18.703125 2.5 
L 18.703125 0 
C 21.90625 0 27.296875 0 30.703125 0 
C 34.09375 0 39.5 0 42.703125 0 
L 42.703125 2.5 
L 40.796875 2.5 
C 33.796875 2.5 33.59375 3.5 33.59375 7.140625 
L 33.59375 17 
L 43.796875 17 
L 43.796875 19.59375 
L 33.59375 19.59375 
z
M 28.09375 57.859375 
L 28.09375 19.59375 
L 4 19.59375 
z
" id="CMR17-52"/>
      </defs>
      <g transform="translate(303.00357129 184.881975707)scale(0.3 -0.3)">
       <use transform="scale(0.996264009963)" xlink:href="#CMR17-52"/>
      </g>
     </g>
    </g>
    <g id="xtick_4">
     <g id="line2d_11">
      <g>
       <use style="stroke:#000000;stroke-width:0.5;" x="433.285714286" xlink:href="#m0761712d6b" y="158.705357143"/>
      </g>
     </g>
     <g id="line2d_12">
      <g>
       <use style="stroke:#000000;stroke-width:0.5;" x="433.285714286" xlink:href="#mfe90970f38" y="22.5"/>
      </g>
     </g>
     <g id="text_4">
      <!-- $6$ -->
      <defs>
       <path d="M 10.59375 34 
C 10.59375 57.65625 21.796875 63 28.296875 63 
C 30.40625 63 35.5 62.640625 37.5 59 
C 35.90625 59 32.90625 59 32.90625 55.515625 
C 32.90625 52.828125 35.09375 51.921875 36.5 51.921875 
C 37.40625 51.921875 40.09375 52.3125 40.09375 55.625 
C 40.09375 61.78125 35.09375 65.296875 28.203125 65.296875 
C 16.296875 65.296875 3.796875 52.96875 3.796875 31 
C 3.796875 3.953125 15.09375 -2 23.09375 -2 
C 32.796875 -2 42 6.671875 42 20.046875 
C 42 32.515625 33.90625 41.59375 23.703125 41.59375 
C 17.59375 41.59375 13.09375 37.609375 10.59375 30.625 
z
M 23.09375 0.390625 
C 10.796875 0.390625 10.796875 18.75 10.796875 22.4375 
C 10.796875 29.625 14.203125 40 23.5 40 
C 25.203125 40 30.09375 40 33.40625 33.125 
C 35.203125 29.21875 35.203125 25.140625 35.203125 20.140625 
C 35.203125 14.75 35.203125 10.78125 33.09375 6.78125 
C 30.90625 2.671875 27.703125 0.390625 23.09375 0.390625 
" id="CMR17-54"/>
      </defs>
      <g transform="translate(426.432142718 184.881975707)scale(0.3 -0.3)">
       <use transform="scale(0.996264009963)" xlink:href="#CMR17-54"/>
      </g>
     </g>
    </g>
    <g id="text_5">
     <!-- $\Delta \epsilon/ \Gamma$ -->
     <defs>
      <path d="M 42.90625 71.28125 
C 42.90625 71.390625 43.5 72.90625 43.5 73.09375 
C 43.5 74.296875 42.5 75 41.703125 75 
C 41.203125 75 40.296875 75 39.5 72.796875 
L 6 -21.296875 
C 6 -21.40625 5.40625 -22.890625 5.40625 -23.09375 
C 5.40625 -24.296875 6.40625 -25 7.203125 -25 
C 7.796875 -25 8.703125 -24.890625 9.40625 -22.796875 
z
" id="CMMI12-61"/>
      <path d="M 40.59375 68.796875 
C 39.796875 70.5 39.40625 70.5 38.59375 70.5 
C 37.40625 70.5 37.296875 70.296875 36.59375 68.890625 
L 4.203125 1.703125 
C 4.09375 1.5 3.703125 0.59375 3.703125 0.5 
C 3.703125 0.09375 3.796875 0 5.59375 0 
L 71.5 0 
C 73.296875 0 73.40625 0.09375 73.40625 0.5 
C 73.40625 0.59375 73 1.5 72.90625 1.703125 
z
M 36.09375 63.09375 
L 63.796875 5.59375 
L 8.296875 5.59375 
z
" id="CMR17-1"/>
      <path d="M 51.796875 68 
L 5.09375 68 
L 5.09375 65.40625 
C 12 65.40625 13.09375 65.40625 13.09375 60.90625 
L 13.09375 7 
C 13.09375 2.5 12 2.5 5.09375 2.5 
L 5.09375 0 
C 8 0 13.59375 0 16.703125 0 
C 20.796875 0 25.59375 0 29.703125 0 
L 29.703125 2.5 
L 27.5 2.5 
C 19.90625 2.5 19.703125 3.5 19.703125 7.109375 
L 19.703125 61.5 
C 19.703125 64.90625 19.90625 65.40625 23.90625 65.40625 
L 34.90625 65.40625 
C 50.09375 65.40625 50.90625 58.40625 52.40625 45.90625 
L 54.203125 45.90625 
z
" id="CMR17-0"/>
      <path d="M 29.09375 22.921875 
C 30.59375 22.921875 32.296875 22.921875 32.296875 24.515625 
C 32.296875 25.8125 31.296875 25.8125 29.5 25.8125 
L 13.296875 25.8125 
C 15.796875 34.78125 21.703125 40.203125 30.59375 40.203125 
L 33.5 40.203125 
C 35.203125 40.203125 36.703125 40.203125 36.703125 41.796875 
C 36.703125 43.09375 35.59375 43.09375 33.796875 43.09375 
L 30.40625 43.09375 
C 18.09375 43.09375 4.59375 33.296875 4.59375 17.59375 
C 4.59375 6.5 12.09375 -1 22 -1 
C 28.40625 -1 34.703125 3.03125 34.703125 4.03125 
C 34.703125 4.625 34.40625 5.25 33.796875 5.25 
C 33.5 5.25 33.296875 5.140625 32.796875 4.75 
C 29 2.21875 25.296875 1 22.296875 1 
C 17 1 11.40625 4.53125 11.40625 14.34375 
C 11.40625 16.25 11.59375 18.875 12.5 22.921875 
z
" id="CMMI12-15"/>
     </defs>
     <g transform="translate(245.630278667 217.976511335)scale(0.3 -0.3)">
      <use transform="scale(0.996264009963)" xlink:href="#CMR17-1"/>
      <use transform="translate(76.9195898681 0.0)scale(0.996264009963)" xlink:href="#CMMI12-15"/>
      <use transform="translate(116.308548145 0.0)scale(0.996264009963)" xlink:href="#CMMI12-61"/>
      <use transform="translate(165.083466906 0.0)scale(0.996264009963)" xlink:href="#CMR17-0"/>
     </g>
    </g>
   </g>
   <g id="matplotlib.axis_2">
    <g id="ytick_1">
     <g id="line2d_13">
      <defs>
       <path d="M 0 0 
L 4 0 
" id="mbd30f88eea" style="stroke:#000000;stroke-width:0.5;"/>
      </defs>
      <g>
       <use style="stroke:#000000;stroke-width:0.5;" x="63.0" xlink:href="#mbd30f88eea" y="158.705357143"/>
      </g>
     </g>
     <g id="line2d_14">
      <defs>
       <path d="M 0 0 
L -4 0 
" id="ma6a7a480bd" style="stroke:#000000;stroke-width:0.5;"/>
      </defs>
      <g>
       <use style="stroke:#000000;stroke-width:0.5;" x="495.0" xlink:href="#ma6a7a480bd" y="158.705357143"/>
      </g>
     </g>
     <g id="text_6">
      <!-- $0$ -->
      <g transform="translate(45.2928568649 166.954368723)scale(0.3 -0.3)">
       <use transform="scale(0.996264009963)" xlink:href="#CMR17-48"/>
      </g>
     </g>
    </g>
    <g id="ytick_2">
     <g id="line2d_15">
      <g>
       <use style="stroke:#000000;stroke-width:0.5;" x="63.0" xlink:href="#mbd30f88eea" y="113.303571429"/>
      </g>
     </g>
     <g id="line2d_16">
      <g>
       <use style="stroke:#000000;stroke-width:0.5;" x="495.0" xlink:href="#ma6a7a480bd" y="113.303571429"/>
      </g>
     </g>
     <g id="text_7">
      <!-- $1$ -->
      <defs>
       <path d="M 26.59375 63.40625 
C 26.59375 65.5 26.5 65.5 25.09375 65.5 
C 21.203125 61.1875 15.296875 59.796875 9.703125 59.796875 
C 9.40625 59.796875 8.90625 59.796875 8.796875 59.5 
C 8.703125 59.296875 8.703125 59.09375 8.703125 57 
C 11.796875 57 17 57.59375 21 59.984375 
L 21 7.203125 
C 21 3.6875 20.796875 2.5 12.203125 2.5 
L 9.203125 2.5 
L 9.203125 0 
C 14 0 19 0 23.796875 0 
C 28.59375 0 33.59375 0 38.40625 0 
L 38.40625 2.5 
L 35.40625 2.5 
C 26.796875 2.5 26.59375 3.59375 26.59375 7.15625 
z
" id="CMR17-49"/>
      </defs>
      <g transform="translate(45.2928568649 121.552583009)scale(0.3 -0.3)">
       <use transform="scale(0.996264009963)" xlink:href="#CMR17-49"/>
      </g>
     </g>
    </g>
    <g id="ytick_3">
     <g id="line2d_17">
      <g>
       <use style="stroke:#000000;stroke-width:0.5;" x="63.0" xlink:href="#mbd30f88eea" y="67.9017857143"/>
      </g>
     </g>
     <g id="line2d_18">
      <g>
       <use style="stroke:#000000;stroke-width:0.5;" x="495.0" xlink:href="#ma6a7a480bd" y="67.9017857143"/>
      </g>
     </g>
     <g id="text_8">
      <!-- $2$ -->
      <g transform="translate(45.2928568649 76.1507972944)scale(0.3 -0.3)">
       <use transform="scale(0.996264009963)" xlink:href="#CMR17-50"/>
      </g>
     </g>
    </g>
    <g id="text_9">
     <!-- $\rho_{\uparrow}(0)/\rho_{\downarrow}(0)$ -->
     <defs>
      <path d="M 3.09375 -17.296875 
C 3 -17.796875 2.796875 -18.390625 2.796875 -19 
C 2.796875 -20.5 4 -21.5 5.5 -21.5 
C 7 -21.5 8.40625 -20.5 9 -19.09375 
C 9.40625 -18.1875 12.203125 -6.203125 15.40625 6.09375 
C 17.40625 1.09375 21.09375 -1 25 -1 
C 36.296875 -1 49.09375 12.96875 49.09375 28.046875 
C 49.09375 38.71875 42.59375 44 35.703125 44 
C 26.90625 44 16.203125 34.921875 12.90625 21.640625 
z
M 24.90625 1 
C 18.09375 1 16.40625 8.890625 16.40625 10.078125 
C 16.40625 10.6875 18.90625 20.234375 19.203125 21.734375 
C 24.296875 41.71875 34.09375 41.71875 35.59375 41.71875 
C 40.09375 41.71875 42.59375 37.65625 42.59375 31.8125 
C 42.59375 26.75 39.90625 16.9375 38.203125 12.796875 
C 35.203125 5.953125 30 1 24.90625 1 
" id="CMMI12-26"/>
      <path d="M 26.296875 24.703125 
C 26.296875 31.875 25.59375 44.015625 19.59375 56.859375 
C 14.796875 67.234375 6.59375 74.5 5.40625 74.5 
C 5.09375 74.5 4.703125 74.390625 4.703125 73.890625 
C 4.703125 73.703125 4.796875 73.59375 4.90625 73.390625 
C 9.703125 68.40625 21.90625 55.75 21.90625 24.75 
C 21.90625 -6.359375 9.796875 -19.015625 4.90625 -24.015625 
C 4.796875 -24.203125 4.703125 -24.3125 4.703125 -24.5 
C 4.703125 -25 5.09375 -25 5.40625 -25 
C 6.5 -25 15 -17.625 19.90625 -6.65625 
C 24.90625 4.390625 26.296875 15.140625 26.296875 24.703125 
" id="CMR17-41"/>
      <path d="M 30.59375 -24.390625 
C 30.59375 -24.296875 30.59375 -24.09375 30.296875 -23.796875 
C 25.703125 -19.125 13.40625 -6.359375 13.40625 24.703125 
C 13.40625 55.765625 25.5 68.421875 30.40625 73.390625 
C 30.40625 73.5 30.59375 73.703125 30.59375 74 
C 30.59375 74.296875 30.296875 74.5 29.90625 74.5 
C 28.796875 74.5 20.296875 67.125 15.40625 56.15625 
C 10.40625 45.109375 9 34.359375 9 24.8125 
C 9 17.625 9.703125 5.484375 15.703125 -7.359375 
C 20.5 -17.734375 28.703125 -25 29.90625 -25 
C 30.40625 -25 30.59375 -24.796875 30.59375 -24.390625 
" id="CMR17-40"/>
      <path d="M 27 55.34375 
C 29.40625 51.546875 32.203125 48.75 34.703125 46.828125 
C 40.796875 42.234375 46.90625 41.234375 47.09375 41.234375 
C 48.296875 41.234375 48.296875 42.328125 48.296875 43.125 
C 48.296875 44.734375 48.203125 44.828125 46 45.53125 
C 39.203125 47.421875 35.296875 51.03125 33 53.53125 
C 27.90625 59.046875 26.703125 65.046875 26.09375 68.25 
C 26 68.75 25.59375 69.140625 25 69.140625 
C 24.09375 69.140625 24 68.546875 23.796875 67.34375 
C 21.5 56.25 14.40625 48.4375 3.40625 45.34375 
C 1.90625 44.84375 1.703125 44.84375 1.703125 43.140625 
C 1.703125 42.34375 1.703125 41.234375 2.90625 41.234375 
C 3.203125 41.234375 9.09375 42.328125 14.796875 46.421875 
C 18.09375 48.9375 20.796875 51.9375 23 55.34375 
L 23 -15.953125 
C 23 -17.75 23 -19.5625 25 -19.5625 
C 27 -19.5625 27 -17.75 27 -15.953125 
z
" id="CMSY10-34"/>
      <path d="M 27 65.953125 
C 27 67.75 27 69.5625 25 69.5625 
C 23 69.5625 23 67.75 23 65.953125 
L 23 -5.34375 
C 20.59375 -1.546875 17.796875 1.25 15.296875 3.171875 
C 9.203125 7.765625 3.09375 8.765625 2.90625 8.765625 
C 1.703125 8.765625 1.703125 7.671875 1.703125 6.875 
C 1.703125 5.265625 1.796875 5.171875 4 4.46875 
C 10.796875 2.578125 14.703125 -1.03125 17 -3.53125 
C 22.09375 -9.046875 23.296875 -15.046875 23.90625 -18.140625 
C 24 -18.640625 24.296875 -19.140625 25 -19.140625 
C 25.90625 -19.140625 26 -18.4375 26.203125 -17.546875 
C 28.40625 -6.25 35.59375 1.5625 46.59375 4.65625 
C 48.09375 5.15625 48.296875 5.15625 48.296875 6.859375 
C 48.296875 7.65625 48.296875 8.765625 47.109375 8.765625 
C 46.796875 8.765625 40.90625 7.671875 35.203125 3.578125 
C 31.90625 1.0625 29.203125 -1.9375 27 -5.34375 
z
" id="CMSY10-35"/>
     </defs>
     <g transform="translate(34.6142614609 158.847705764)rotate(-90.0)scale(0.3 -0.3)">
      <use transform="translate(0.0 14.9439145441)scale(0.996264009963)" xlink:href="#CMMI12-26"/>
      <use transform="translate(50.3143728596 0.0)scale(0.697381766617)" xlink:href="#CMSY10-34"/>
      <use transform="translate(85.6817148097 14.9439145441)scale(0.996264009963)" xlink:href="#CMR17-40"/>
      <use transform="translate(120.962482609 14.9439145441)scale(0.996264009963)" xlink:href="#CMR17-48"/>
      <use transform="translate(166.652959726 14.9439145441)scale(0.996264009963)" xlink:href="#CMR17-41"/>
      <use transform="translate(201.933727526 14.9439145441)scale(0.996264009963)" xlink:href="#CMMI12-61"/>
      <use transform="translate(250.708646287 14.9439145441)scale(0.996264009963)" xlink:href="#CMMI12-26"/>
      <use transform="translate(301.023019147 0.0)scale(0.697381766617)" xlink:href="#CMSY10-35"/>
      <use transform="translate(336.390361097 14.9439145441)scale(0.996264009963)" xlink:href="#CMR17-40"/>
      <use transform="translate(371.671128897 14.9439145441)scale(0.996264009963)" xlink:href="#CMR17-48"/>
      <use transform="translate(417.361606014 14.9439145441)scale(0.996264009963)" xlink:href="#CMR17-41"/>
     </g>
    </g>
   </g>
  </g>
 </g>
 <defs>
  <clipPath id="p63cf8830ae">
   <rect height="136.205357143" width="432.0" x="63.0" y="22.5"/>
  </clipPath>
 </defs>
</svg>
